<?xml version="1.0" encoding="UTF-8"?>
<svg id="Layer_1" xmlns="http://www.w3.org/2000/svg" version="1.1" viewBox="0 0 100 125">
  <!-- Generator: Adobe Illustrator 29.1.0, SVG Export Plug-In . SVG Version: 2.1.0 Build 142)  -->
  <defs>
    <style>
      .st0 {
        fill: #2d6b46;
      }
    </style>
  </defs>
  <path class="st0" d="M66.2,18h-32.4c-8.7,0-15.8,7.1-15.8,15.8v32.4c0,8.7,7.1,15.8,15.8,15.8h32.4c8.7,0,15.8-7.1,15.8-15.8v-32.4c0-8.7-7.1-15.8-15.8-15.8ZM65.9,38.2c-2.2,0-4.1-1.8-4.1-4.1s1.8-4.1,4.1-4.1,4.1,1.8,4.1,4.1-1.8,4.1-4.1,4.1h0ZM50,34.8c8.4,0,15.2,6.8,15.2,15.2s-6.8,15.2-15.2,15.2-15.2-6.8-15.2-15.2,6.8-15.2,15.2-15.2Z"/>
  <path class="st0" d="M50,59.2c5.1,0,9.2-4.1,9.2-9.2s-4.1-9.2-9.2-9.2-9.2,4.1-9.2,9.2h0c0,5.1,4.1,9.2,9.2,9.2Z"/>
</svg>