<?xml version="1.0" encoding="UTF-8"?>
<svg id="Layer_1" xmlns="http://www.w3.org/2000/svg" version="1.1" viewBox="0 0 100 93.1">
  <!-- Generator: Adobe Illustrator 29.1.0, SVG Export Plug-In . SVG Version: 2.1.0 Build 142)  -->
  <defs>
    <style>
      .st0 {
        fill: #2d6b46;
        fill-rule: evenodd;
      }
    </style>
  </defs>
  <path class="st0" d="M47.1,22.6c0,1.5.4,3,1.4,4.1l3.8-1.8c5.8-2.8,8.3-9.8,5.5-15.6s-9.8-8.3-15.6-5.5h0l-10.9,5.3c-5.8,2.8-8.2,9.7-5.5,15.5h0c2.8,5.8,9.8,8.3,15.6,5.5-.3-.4-.5-.9-.8-1.4-.4-.8-.7-1.7-.9-2.6h-.2c-3.7,1.7-8.1.1-9.8-3.5-1.7-3.6-.2-8,3.5-9.7l10.9-5.3c2.7-1.3,5.9-.8,8.1,1.2h0c3,2.7,3.3,7.4.5,10.4-.6.7-1.4,1.3-2.3,1.7l-3.3,1.6h0ZM60.3,11.1c-.2-.9-.5-1.8-.9-2.6-.2-.5-.5-.9-.8-1.4,5.8-2.8,12.8-.3,15.5,5.6,2.7,5.8.3,12.7-5.4,15.5l-10.9,5.3c-5.8,2.8-12.8.3-15.6-5.5-.5-1-.8-2.1-1-3.2h0c-.8-5.1,1.8-10.1,6.5-12.3l3.8-1.8c1,1.1,1.5,2.6,1.4,4.1l-3.3,1.6h0c-3.6,1.8-5.2,6.2-3.4,9.8h0c.4.9,1,1.6,1.7,2.3h0c2.2,2,5.4,2.4,8.1,1.2l10.9-5.3c3.6-1.8,5.2-6.1,3.5-9.7h0c-1.8-3.7-6.1-5.2-9.7-3.5h-.4ZM33.4,81.2l4.5-5.6c.6-.7.7-1.6.3-2.4s-.9-1-1.5-1.2c-.9-.3-1.8,0-2.3.8l-4.5,5.6c-.6.7-.7,1.6-.3,2.4s.9,1,1.5,1.2c.8.3,1.8,0,2.3-.8ZM33,71.8l-4.3,5.4c-.5.2-1,0-1.4,0-.4-.2-.8-.5-1.1-.9-.3-.4-.5-.8-.6-1.3-.1-.7,0-1.4.5-1.9l1.9-2.4c.7-1.1,1.9-1.7,3.1-1.6.4,0,.7.2,1.1.4.3.2.6.5.8.8.3.5.4,1.1,0,1.7v-.2ZM6.5,66.5l9,3.9c.5.2,1,0,1.2-.5l12.3-27.9c.2-.5,0-1-.5-1.2l-9-3.9c-.5-.2-1,0-1.2.5h0l-12.3,27.9c-.2.5,0,1,.5,1.2ZM40.2,86.2c0,.7,0,1.4.5,2,.3.4.6.7,1,1,.4.2.8.3,1.2.3.9,0,1.7-.6,2.2-1.4l.9-1.1c.4-.5.6-1,.6-1.6s-.2-1.1-.5-1.5c-.4-.5-.8-.9-1.4-1.1-.4-.2-.9-.3-1.4-.3l-3.1,3.8h0ZM42.1,81l-3.3,4.1h0c-.6.7-1.6,1-2.5.7-.3,0-.7-.3-.9-.5-.3-.2-.5-.5-.7-.8-.5-.7-.4-1.7.2-2.3l4.5-5.6c.5-.7,1.3-.9,2.1-.7.3,0,.6.3.9.5.3.2.5.5.6.8.5,1.2.2,2.6-.7,3.6h0l-.2.2ZM81.3,65.4h0l1.7,4.5c.2.5.7.7,1.2.5l9.1-3.5c.5-.2.7-.7.5-1.2l-11.1-28.4c0-.2-.3-.4-.5-.5-.2,0-.5,0-.7,0l-9,3.5h0c-.4.2-.6.7-.5,1.1h0c0,0,.8,2.2.8,2.2h0l8.4,21.6h0l.2.2ZM43.9,49l.5-.5c1.2-1.2,2.4-2.3,3.3-3.1.7-.7,1.5-1.2,2.3-1.5,1-.2,2-.2,3,0h0c1.1.2,2.5.4,4,.7,2.8.5,5.9,1,8.2,1.2,1.4,0,2.9,0,4.3,0,.7,0,1.3-.3,2-.5,2.6,6.7,5.2,13.3,7.8,20-2.1.7-2.6,2.1-3.2,3.8-.6,2-1.9,3.7-3.7,4.6l-21.4-17.2c-.6-.5-1.3-.9-2.1-1-.8,0-1.6.2-2.2.7-.5.5-.8,1.2-.9,1.9h0c0,.5-.2,1-.2,1.4s0,.9-.2,1.4c0,.6-.3,1.2-.6,1.8-.2.5-.5,1-.8,1.4-.4.5-.8.9-1.3,1.3-.4.3-.9.5-1.3.6h-1.3c-.4,0-.8-.2-1.1-.4v-1.4h0c0-2-.2-5.8-.2-7.8s0-1.2.2-1.8c.4-.7.9-1.3,1.5-1.8l3.7-3.7h-.2ZM66.3,77.3l-8.6-6.9c-.4-.3-.9-.2-1.2,0-.3.4-.2.9,0,1.2h0l8.9,7.2c.6.6.7,1.4.5,2.2-.2.7-.7,1.3-1.3,1.7-.8.5-1.8.4-2.5-.2l-7.9-6.3s0,0-.2,0h0c-.4-.4-.9-.4-1.2,0s-.2.9,0,1.2h0l5.9,4.7c.7.6,1,1.5.7,2.4-.2.7-.7,1.3-1.3,1.7-.8.5-1.8.4-2.5-.2l-4.4-3.5c-.4-.3-.9-.3-1.2,0s-.3.9,0,1.2h0l3.1,2.5s0,.2.2.2c.7.6,1,1.5.7,2.4-.2.7-.7,1.3-1.3,1.7-.8.5-1.8.4-2.5-.2l-2.9-2.4h0c.7-.8,1-1.8,1-2.8s-.3-1.8-.9-2.5c-.5-.7-1.2-1.3-2-1.7-.4-.2-.7-.3-1.1-.4.6-1.3.6-2.8,0-4.1-.3-.5-.6-1-1.1-1.4-.4-.4-1-.7-1.5-.8-.5-.2-1.1-.2-1.6,0,0-.6-.2-1.3-.5-1.8-.5-1-1.4-1.7-2.5-2-.8-.2-1.6-.2-2.3,0,0-.4-.3-.9-.5-1.2-.7-1.1-1.8-1.8-3.1-2-1.9,0-3.6.7-4.7,2.3l-1.1,1.4c-.6-1.2-1.4-2.2-2.4-3.1-.6-.5-1.3-.8-2.1-1-.3,0-.6,0-.9-.2l9.2-20.9c1.8,1.1,3.7,1.9,5.6,2.5,2.1.5,4.1.9,6.3,1l-2.4,2.4c-.7.6-1.3,1.4-1.8,2.3-.3.8-.4,1.7-.3,2.5,0,2.1.2,5.9.2,7.9h0c0,1.7.4,2.7,1.2,3,.4.2.9.3,1.4.5.7.2,1.4.2,2,0,.7,0,1.4-.4,2-.9.7-.5,1.2-1,1.7-1.7.4-.6.7-1.1,1-1.8s.5-1.4.7-2.1c0-.6.2-1.1.3-1.5,0-.4,0-.7.2-1.1h0c0-.5.2-.9.5-1.2s.5-.3.8-.2c.5,0,.9.3,1.2.6h0l21.8,17.5h0c.4.4.7.9.7,1.5,0,1.4-.9,2.6-2.2,2.8-.6,0-1.2,0-1.7-.4l-1.9-1.5-.3-.3s0,0-.2,0h0Z"/>
</svg>