<?xml version="1.0" encoding="UTF-8"?>
<svg id="Layer_1" xmlns="http://www.w3.org/2000/svg" version="1.1" viewBox="0 0 69.8 63.1">
  <!-- Generator: Adobe Illustrator 29.1.0, SVG Export Plug-In . SVG Version: 2.1.0 Build 142)  -->
  <defs>
    <style>
      .st0 {
        fill: #2d6b46;
        fill-rule: evenodd;
      }
    </style>
  </defs>
  <path class="st0" d="M42,37l22.7-6.1v28.5c0,.3-.2.5-.5.5H6c-.3,0-.5-.2-.5-.5v-28.5l22.7,6.1v3.3c0,2.3,1.9,4.2,4.2,4.2h5.3c2.3,0,4.2-1.9,4.2-4.2v-3.3ZM68,12.7v11.7c0,.3-.2.5-.5.6l-25.6,6.9c-.2-2.2-2-3.9-4.2-3.9h-5.3c-2.2,0-4,1.7-4.2,3.9L2.5,25c-.3,0-.5-.3-.5-.6v-11.7c0-.3.3-.6.6-.6h14.9v-1.3c0-2.3.9-4.4,2.5-5.9,1.5-1.5,3.6-2.5,5.9-2.5h18c2.3,0,4.4.9,5.9,2.5,1.5,1.5,2.5,3.6,2.5,5.9v1.3h14.9c.3,0,.6.3.6.6h0ZM47.5,10.8c0-.9-.4-1.8-1-2.4-.6-.6-1.5-1-2.4-1h-18c-.9,0-1.8.4-2.4,1-.6.6-1,1.5-1,2.4v1.3h24.9v-1.3h0ZM36.5,40.1c.5,0,1-.4,1-1v-5.7c0-.5-.4-1-1-1h-2.9c-.5,0-1,.4-1,1v5.7c0,.5.4,1,1,1h2.9Z"/>
</svg>